<?xml version="1.0" encoding="utf-8"?>
<!-- Generator: Adobe Illustrator 22.1.0, SVG Export Plug-In . SVG Version: 6.00 Build 0)  -->
<svg fill-opacity="1" version="1.1" id="Layer_1" xmlns="http://www.w3.org/2000/svg" xmlns:xlink="http://www.w3.org/1999/xlink" x="0px" y="0px"
	 viewBox="0 0 1024 1024" enable-background="new 0 0 1024 1024" xml:space="preserve">
<g >
	<path d="M119.6,512.2c131.5-131.5,261.9-261.9,391.1-391.1C642.3,251.7,773.3,381.8,904,511.5c-130.6,131.3-260.6,262-390,392
		C382,772.5,251,642.6,119.6,512.2z M162.9,512.7C279.6,628.4,396.5,744.4,513,859.9C628.4,744.4,744.8,628.1,861.8,511
		c-116.2-115.6-233-231.8-349.5-347.7C396.5,279.1,280.1,395.5,162.9,512.7z"/>
	<path fill="#FFFFFF" d="M162.9,512.7c117.2-117.2,233.6-233.6,349.4-349.4C628.8,279.2,745.6,395.4,861.8,511
		c-117,117-233.4,233.4-348.8,348.8C396.5,744.4,279.6,628.4,162.9,512.7z M512.4,203.6C409.9,306.1,307,409,203.9,512.1
		c34,34.3,68.1,68.7,102.1,103c89.6-89.6,178.7-178.7,267.6-267.6c-20.3-20.3-40.9-40.9-61.3-61.3C437,361.5,361.5,437,286.6,511.9
		c6.6,6.7,13.5,13.5,20.8,20.9c68.2-68.2,136.6-136.6,204.9-204.9c6.5,6.5,13.2,13.2,19.2,19.2c-75.2,75.2-150.4,150.4-224.3,224.3
		c-20.5-19.5-41.3-39.4-61.8-58.9c89.4-89.4,178.2-178.2,266.8-266.8c33.9,33.9,68,68,102.3,102.3
		c-95.7,95.7-191.7,191.7-287.1,287.1c20.6,20.6,41.2,41.2,61.2,61.3c54.6-54.6,109.5-109.5,163.9-163.9
		c-6.5-6.5-13.4-13.4-20.8-20.8c-47.7,47.7-95.6,95.6-143.3,143.3c-6.4-6.4-13-13-20.1-20.1c95.8-95.8,191.8-191.8,288.6-288.6
		C608.9,298.8,560.6,251.1,512.4,203.6z M511.5,820c89.1-89.1,178.4-178.4,267.5-267.5c-47.1-47.1-95-95-142.6-142.6
		c-6.8,6.8-13.7,13.6-20.5,20.5c40.7,40.7,81.6,81.6,122,122c-7,7-13.6,13.7-20.5,20.6c-20.1-20.1-40.6-40.6-60.5-60.6
		c-20.7,20.7-41.3,41.3-61.9,61.9c20.2,20.2,40.7,40.6,60.8,60.7c-48,48-95.9,95.9-143.5,143.5c-6.4-6.4-13.1-13-20.3-20.2
		c40.7-40.7,81.7-81.7,122.4-122.4c-6.7-6.7-13.6-13.6-20.9-20.9c-40.7,40.7-81.6,81.6-122.8,122.8c-13.4-13.4-26.9-26.9-39.8-39.8
		c-7,7-13.9,13.9-20.7,20.6C443.9,752.4,477.9,786.4,511.5,820z M656.3,389.4c47.9,48,95.9,95.9,143.2,143.2
		c6.9-6.9,13.8-13.8,20.2-20.1c-47.6-47.6-95.4-95.4-143.2-143.2C670,375.7,663.1,382.5,656.3,389.4z M553.6,574.1
		c-34.4,34.4-68.7,68.7-102.4,102.4c6.7,6.7,13.5,13.5,20.1,20.1c34-34,68.3-68.3,102.4-102.4C567.1,587.6,560.3,580.8,553.6,574.1z
		 M614.7,512.2c-6.7-6.6-13.5-13.5-20.3-20.2c-6.6,6.6-13.5,13.5-20,20c6.7,6.6,13.5,13.5,20.3,20.2
		C601.3,525.6,608.2,518.7,614.7,512.2z"/>
	<path d="M512.4,203.6c48.1,47.5,96.4,95.2,144.6,142.7c-96.8,96.8-192.8,192.8-288.6,288.6c7.1,7.1,13.7,13.7,20.1,20.1
		c47.7-47.7,95.6-95.6,143.3-143.3c7.4,7.4,14.3,14.3,20.8,20.8C498.1,587,443.3,641.8,388.7,696.4c-20-20.1-40.6-40.7-61.2-61.3
		c95.5-95.5,191.5-191.5,287.1-287.1c-34.3-34.3-68.4-68.4-102.3-102.3C423.7,334.3,334.9,423,245.5,512.5
		c20.5,19.5,41.3,39.4,61.8,58.9c73.9-73.9,149.2-149.2,224.3-224.3c-6-6-12.7-12.7-19.2-19.2C444,396.2,375.6,464.6,307.4,532.8
		c-7.3-7.4-14.2-14.2-20.8-20.9C361.5,437,437,361.5,512.3,286.2c20.4,20.4,41,41,61.3,61.3c-88.9,88.9-178,178-267.6,267.6
		c-34-34.3-68.1-68.7-102.1-103C307,409,409.9,306.1,512.4,203.6z"/>
	<path d="M511.5,820c-33.5-33.5-67.6-67.6-101.3-101.3c6.8-6.8,13.7-13.6,20.7-20.6c12.9,12.9,26.4,26.4,39.8,39.8
		c41.2-41.2,82.1-82.1,122.8-122.8c7.3,7.3,14.2,14.2,20.9,20.9c-40.7,40.7-81.7,81.7-122.4,122.4c7.2,7.2,13.8,13.8,20.3,20.2
		c47.6-47.6,95.5-95.5,143.5-143.5c-20.1-20.1-40.6-40.5-60.8-60.7c20.6-20.6,41.2-41.2,61.9-61.9c20,20,40.4,40.4,60.5,60.6
		c6.9-6.9,13.6-13.6,20.5-20.6c-40.4-40.4-81.3-81.3-122-122c6.9-6.8,13.7-13.7,20.5-20.5c47.5,47.5,95.5,95.5,142.6,142.6
		C689.8,641.6,600.6,730.9,511.5,820z M636.7,573.6c13.5,13.5,27,26.9,40.2,40.2c6.4-6.4,13.1-13,19.3-19.3
		c-13.2-13.3-26.8-26.8-40.2-40.2C649.7,560.6,643.2,567.2,636.7,573.6z"/>
	<path d="M656.3,389.4c6.9-6.9,13.7-13.7,20.2-20.2c47.8,47.8,95.7,95.7,143.2,143.2c-6.4,6.4-13.3,13.3-20.2,20.1
		C752.1,485.2,704.2,437.3,656.3,389.4z"/>
	<path d="M553.6,574.1c6.7,6.7,13.5,13.5,20.1,20.1c-34.1,34.1-68.4,68.4-102.4,102.4c-6.6-6.6-13.4-13.5-20.1-20.1
		C484.9,642.8,519.2,608.5,553.6,574.1z"/>
	<path d="M614.7,512.2c-6.5,6.5-13.4,13.4-20,20c-6.7-6.7-13.6-13.6-20.3-20.2c6.5-6.5,13.4-13.4,20-20
		C601.2,498.7,608.1,505.6,614.7,512.2z"/>
	<path fill="#FFFFFF" d="M636.7,573.6c6.4-6.4,13-13,19.4-19.3c13.4,13.4,26.9,27,40.2,40.2c-6.3,6.3-12.9,12.9-19.3,19.3
		C663.7,600.6,650.3,587.1,636.7,573.6z"/>
</g>
</svg>
